<svg xmlns="http://www.w3.org/2000/svg" viewBox="0 0 500 350.41513"><g id="Setup_analytics" data-name="Setup analytics"><rect y="327.4458" width="500" height="0.25" style="fill:#ebebeb"/><rect x="332.1111" y="334.2557" width="97.5968" height="0.25" style="fill:#ebebeb"/><rect x="289" y="340.0331" width="46.6667" height="0.25" style="fill:#ebebeb"/><rect x="430.7088" y="343.5418" width="19.1924" height="0.25" style="fill:#ebebeb"/><rect x="126.4733" y="340.1581" width="92.5267" height="0.25" style="fill:#ebebeb"/><rect x="97.6667" y="340.1581" width="19.9033" height="0.25" style="fill:#ebebeb"/><rect x="57.7923" y="335.9359" width="32.8621" height="0.25" style="fill:#ebebeb"/><path d="M237.0137,337.7998H43.915a5.7144,5.7144,0,0,1-5.708-5.708V60.6602a5.71438,5.71438,0,0,1,5.708-5.7076H237.0137a5.71411,5.71411,0,0,1,5.707,5.7076V332.0918A5.71413,5.71413,0,0,1,237.0137,337.7998ZM43.915,55.2026a5.46391,5.46391,0,0,0-5.458,5.4576V332.0918a5.46393,5.46393,0,0,0,5.458,5.458H237.0137a5.46365,5.46365,0,0,0,5.457-5.458V60.6602a5.46363,5.46363,0,0,0-5.457-5.4576Z" transform="translate(0 -54.9526)" style="fill:#ebebeb"/><path d="M453.3105,337.7998H260.2119a5.71413,5.71413,0,0,1-5.707-5.708V60.6602a5.71411,5.71411,0,0,1,5.707-5.7076H453.3105a5.7144,5.7144,0,0,1,5.7081,5.7076V332.0918A5.71442,5.71442,0,0,1,453.3105,337.7998ZM260.2119,55.2026a5.46363,5.46363,0,0,0-5.457,5.4576V332.0918a5.46365,5.46365,0,0,0,5.457,5.458H453.3105a5.464,5.464,0,0,0,5.4581-5.458V60.6602a5.46393,5.46393,0,0,0-5.4581-5.4576Z" transform="translate(0 -54.9526)" style="fill:#ebebeb"/><polygon points="425.369 339.329 61.561 339.329 39.867 92.545 403.675 92.545 425.369 339.329" style="fill:#f0f0f0"/><polygon points="55.133 347.19 61.561 339.329 39.867 92.545 33.449 100.526 55.133 347.19" style="fill:#e0e0e0"/><path d="M66.369,384.912,46.3852,157.58525a4.09747,4.09747,0,0,1,4.0817-4.45631H394.78548a4.09744,4.09744,0,0,1,4.08158,3.73867L418.851,384.19446a4.09743,4.09743,0,0,1-4.0817,4.45619H70.45072A4.09747,4.09747,0,0,1,66.369,384.912Z" transform="translate(0 -54.9526)" style="fill:#fafafa"/><polygon points="112.695 339.329 57.882 339.329 54.005 350.415 108.819 350.415 112.695 339.329" style="fill:#e0e0e0"/><polygon points="112.695 339.329 473.11 339.329 469.234 350.415 108.819 350.415 112.695 339.329" style="fill:#f5f5f5"/><polygon points="261.11 339.329 330.197 339.329 329.454 346.588 260.367 346.588 261.11 339.329" style="fill:#e0e0e0"/><rect x="178.03087" y="29.70139" width="19.26438" height="2.30782" style="fill:#273a58"/><rect x="115.49592" y="29.70139" width="43.86326" height="2.30782" style="fill:#273a58"/><path d="M363.3535,296.99162H123.08836c-15.24757,0-28.73866-12.47535-29.98006-27.72292L81.08107,121.534a25.24355,25.24355,0,0,1,25.46578-27.72292H346.81226c15.24756,0,28.73839,12.47535,29.97979,27.72292l12.0275,147.73466A25.24391,25.24391,0,0,1,363.3535,296.99162Z" transform="translate(0 -54.9526)" style="fill:#fff"/><path d="M363.354,298.14633H123.08783c-15.8728,0-29.839-12.91254-31.13077-28.784L79.93036,121.6274a26.3979,26.3979,0,0,1,26.61649-28.97126H346.812c15.8728,0,29.83869,12.91227,31.1321,28.78374L389.9708,269.17481A26.39666,26.39666,0,0,1,363.354,298.14633ZM106.54685,94.964a24.09136,24.09136,0,0,0-24.31374,26.47592L94.25954,269.17481c1.19712,14.70209,14.12887,26.66344,28.82829,26.66344H363.354a24.08937,24.08937,0,0,0,24.314-26.47592L375.64134,121.6274C374.44315,106.92558,361.50981,94.964,346.812,94.964Z" transform="translate(0 -54.9526)" style="fill:#273a58"/><polygon points="102.811 81.25 230.131 81.25 229.107 68.673 101.787 68.673 102.811 81.25" style="fill:#e0e0e0"/><polygon points="357.451 81.25 230.131 81.25 229.107 68.673 356.427 68.673 357.451 81.25" style="fill:#1fcccc"/><polygon points="105.476 113.994 141.799 113.994 140.775 101.416 104.452 101.416 105.476 113.994" style="fill:#e0e0e0"/><polygon points="360.117 113.994 141.799 113.994 140.775 101.416 359.093 101.416 360.117 113.994" style="fill:#1fcccc"/><polygon points="108.142 146.738 221.472 146.738 220.448 134.16 107.118 134.16 108.142 146.738" style="fill:#e0e0e0"/><polygon points="362.782 146.738 221.472 146.738 220.448 134.16 361.758 134.16 362.782 146.738" style="fill:#1fcccc"/><polygon points="110.808 179.481 304.227 179.481 303.203 166.903 109.784 166.903 110.808 179.481" style="fill:#e0e0e0"/><polygon points="365.448 179.481 304.227 179.481 303.203 166.903 364.424 166.903 365.448 179.481" style="fill:#1fcccc"/><polygon points="113.474 212.225 202.931 212.225 201.907 199.647 112.45 199.647 113.474 212.225" style="fill:#e0e0e0"/><polygon points="368.114 212.225 202.931 212.225 201.907 199.647 367.09 199.647 368.114 212.225" style="fill:#1fcccc"/></g></svg>