<svg xmlns="http://www.w3.org/2000/svg" viewBox="0 0 500 350.41513"><g id="Setup_analytics" data-name="Setup analytics"><rect y="327.4458" width="500" height="0.25" style="fill:#ebebeb"/><rect x="332.1111" y="334.2557" width="97.5968" height="0.25" style="fill:#ebebeb"/><rect x="289" y="340.0331" width="46.6667" height="0.25" style="fill:#ebebeb"/><rect x="430.7088" y="343.5418" width="19.1924" height="0.25" style="fill:#ebebeb"/><rect x="126.4733" y="340.1581" width="92.5267" height="0.25" style="fill:#ebebeb"/><rect x="97.6667" y="340.1581" width="19.9033" height="0.25" style="fill:#ebebeb"/><rect x="57.7923" y="335.9359" width="32.8621" height="0.25" style="fill:#ebebeb"/><path d="M237.0137,337.7998H43.915a5.7144,5.7144,0,0,1-5.708-5.708V60.6602a5.71438,5.71438,0,0,1,5.708-5.7076H237.0137a5.71411,5.71411,0,0,1,5.707,5.7076V332.0918A5.71413,5.71413,0,0,1,237.0137,337.7998ZM43.915,55.2026a5.46391,5.46391,0,0,0-5.458,5.4576V332.0918a5.46393,5.46393,0,0,0,5.458,5.458H237.0137a5.46365,5.46365,0,0,0,5.457-5.458V60.6602a5.46363,5.46363,0,0,0-5.457-5.4576Z" transform="translate(0 -54.9526)" style="fill:#ebebeb"/><path d="M453.3105,337.7998H260.2119a5.71413,5.71413,0,0,1-5.707-5.708V60.6602a5.71411,5.71411,0,0,1,5.707-5.7076H453.3105a5.7144,5.7144,0,0,1,5.7081,5.7076V332.0918A5.71442,5.71442,0,0,1,453.3105,337.7998ZM260.2119,55.2026a5.46363,5.46363,0,0,0-5.457,5.4576V332.0918a5.46365,5.46365,0,0,0,5.457,5.458H453.3105a5.464,5.464,0,0,0,5.4581-5.458V60.6602a5.46393,5.46393,0,0,0-5.4581-5.4576Z" transform="translate(0 -54.9526)" style="fill:#ebebeb"/><polygon points="425.369 339.329 61.561 339.329 39.867 92.545 403.675 92.545 425.369 339.329" style="fill:#f0f0f0"/><polygon points="55.133 347.19 61.561 339.329 39.867 92.545 33.449 100.526 55.133 347.19" style="fill:#e0e0e0"/><path d="M66.369,384.912,46.3852,157.58525a4.09747,4.09747,0,0,1,4.0817-4.45631H394.78548a4.09744,4.09744,0,0,1,4.08158,3.73867L418.851,384.19446a4.09743,4.09743,0,0,1-4.0817,4.45619H70.45072A4.09747,4.09747,0,0,1,66.369,384.912Z" transform="translate(0 -54.9526)" style="fill:#fafafa"/><polygon points="112.695 339.329 57.882 339.329 54.005 350.415 108.819 350.415 112.695 339.329" style="fill:#e0e0e0"/><polygon points="112.695 339.329 473.11 339.329 469.234 350.415 108.819 350.415 112.695 339.329" style="fill:#f5f5f5"/><polygon points="261.11 339.329 330.197 339.329 329.454 346.588 260.367 346.588 261.11 339.329" style="fill:#e0e0e0"/><path d="M313.01091,193.80766H157.23252a19.92168,19.92168,0,0,1-19.43788-17.97445l-7.798-95.78529a16.36693,16.36693,0,0,1,16.511-17.97444H302.28623a19.92164,19.92164,0,0,1,19.43771,17.97444l7.798,95.78529A16.36694,16.36694,0,0,1,313.01091,193.80766Z" transform="translate(0 -54.9526)" style="fill:#fff"/><path d="M313.01074,194.55511H157.23235a20.64391,20.64391,0,0,1-20.184-18.6605l-7.7985-95.78547a17.11458,17.11458,0,0,1,17.25795-18.784H302.28623a20.64557,20.64557,0,0,1,20.184,18.66224l7.7985,95.78564a17.11427,17.11427,0,0,1-17.25794,18.78208ZM146.50784,62.82163a15.61856,15.61856,0,0,0-15.76493,17.16576l7.79832,95.78564a19.1218,19.1218,0,0,0,18.69112,17.28578H313.01074a15.61856,15.61856,0,0,0,15.76493-17.1642l-7.7985-95.78547a19.12163,19.12163,0,0,0-18.69094-17.28751Z" transform="translate(0 -54.9526)" style="fill:#273a58"/><path d="M270.73544,165.84128a48.31859,48.31859,0,0,1-22.89673,13.87034l-2.57806-7.38482c19.18-5.24241,32.16369-23.12692,30.43323-44.38156a50.00261,50.00261,0,0,0-16.09577-32.48883L264.565,90.049C287.04791,110.83966,289.83315,145.05081,270.73544,165.84128Z" transform="translate(0 -54.9526)" style="fill:#e0e0e0"/><path d="M264.565,90.049l-4.96691,5.40739A49.6887,49.6887,0,0,0,226.014,82.00563a42.09925,42.09925,0,0,0-31.37749,13.46583l-5.864-5.42244a49.35682,49.35682,0,0,1,36.61834-15.69766A58.12047,58.12047,0,0,1,264.565,90.049Z" transform="translate(0 -54.9526)" style="fill:#273a58"/><path d="M247.83871,179.71162c-18.06645,4.9427-38.26995-.35937-52.89571-13.87034-22.46783-20.79047-25.25307-55.00162-6.17041-75.79226l5.864,5.42244a42.40767,42.40767,0,0,0-10.807,32.47378C185.894,153.304,208.134,173.8698,233.493,173.8698a45.03589,45.03589,0,0,0,11.7677-1.543Z" transform="translate(0 -54.9526)" style="fill:#1fcccc"/><path d="M442.96433,342.74283H287.18577a19.92163,19.92163,0,0,1-19.43771-17.97444l-7.798-95.7853a16.36692,16.36692,0,0,1,16.511-17.97444H432.23947a19.92166,19.92166,0,0,1,19.43788,17.97444l7.798,95.7853A16.36692,16.36692,0,0,1,442.96433,342.74283Z" transform="translate(0 -54.9526)" style="fill:#fff"/><path d="M442.96433,343.4915H287.18611a20.64773,20.64773,0,0,1-20.18482-18.66241l-7.79763-95.78547a17.1145,17.1145,0,0,1,17.25707-18.78381H432.24a20.64621,20.64621,0,0,1,20.184,18.66223l7.79764,95.78547a17.11563,17.11563,0,0,1-17.25725,18.784ZM276.46073,211.75611A15.6188,15.6188,0,0,0,260.69667,228.922l7.79746,95.78547a19.12393,19.12393,0,0,0,18.692,17.28752H442.96433a15.61967,15.61967,0,0,0,15.76424-17.16594l-7.79764-95.78547A19.12176,19.12176,0,0,0,432.24,211.75611Z" transform="translate(0 -54.9526)" style="fill:#273a58"/><polygon points="364.876 268.46 362.127 268.46 354.549 175.386 357.299 175.386 364.876 268.46" style="fill:#e0e0e0"/><polygon points="369.027 229.785 351.678 229.785 348.718 193.42 366.067 193.42 369.027 229.785" style="fill:#1fcccc"/><polygon points="330.731 268.46 327.982 268.46 320.405 175.386 323.154 175.386 330.731 268.46" style="fill:#e0e0e0"/><polygon points="335.54 237.861 318.191 237.861 315.596 205.985 332.945 205.985 335.54 237.861" style="fill:#1fcccc"/><polygon points="296.587 268.46 293.837 268.46 286.26 175.386 289.009 175.386 296.587 268.46" style="fill:#e0e0e0"/><polygon points="299.26 211.636 281.911 211.636 280.129 189.751 297.479 189.751 299.26 211.636" style="fill:#273a58"/><polygon points="399.021 268.46 396.271 268.46 388.694 175.386 391.444 175.386 399.021 268.46" style="fill:#e0e0e0"/><polygon points="404.853 250.427 387.503 250.427 382.862 193.42 400.212 193.42 404.853 250.427" style="fill:#273a58"/><polygon points="433.166 268.46 430.416 268.46 422.839 175.386 425.588 175.386 433.166 268.46" style="fill:#e0e0e0"/><polygon points="439.553 257.258 422.204 257.258 418.487 211.602 435.837 211.602 439.553 257.258" style="fill:#1fcccc"/><path d="M221.072,341.95526H65.29364a19.92151,19.92151,0,0,1-19.43771-17.97444l-7.79815-95.78529A16.367,16.367,0,0,1,54.569,210.22108H210.34734a19.92163,19.92163,0,0,1,19.43771,17.97445l7.79816,95.78529A16.36706,16.36706,0,0,1,221.072,341.95526Z" transform="translate(0 -54.9526)" style="fill:#fff"/><path d="M221.07221,342.70272H65.29382A20.646,20.646,0,0,1,45.109,324.04221l-7.79763-95.78564A17.11453,17.11453,0,0,1,54.5693,209.47276H210.34769a20.64558,20.64558,0,0,1,20.184,18.66224l7.79763,95.78564a17.11172,17.11172,0,0,1-17.25707,18.78208ZM54.5693,210.96906A15.61884,15.61884,0,0,0,38.80437,228.135L46.602,323.92064a19.12363,19.12363,0,0,0,18.69181,17.28578H221.07221a15.61962,15.61962,0,0,0,15.76406-17.16421l-7.79764-95.78564a19.12176,19.12176,0,0,0-18.69094-17.28751Z" transform="translate(0 -54.9526)" style="fill:#1fcccc"/><polygon points="75.645 218.849 109.219 257.641 147.722 198.25 171.532 228.941 177.342 219.979 216.261 266.624 66.782 266.569 75.645 218.849" style="fill:#273a58"/><polygon points="187.728 221.257 172.124 254.671 122.353 175.647 98.916 225.832 91.406 213.907 66.787 266.624 216.255 266.55 187.728 221.257" style="fill:#e0e0e0"/><path d="M249.19237,124.51662H233.50122q-.1669-10.61415-.3338-21.22828-9.59736,12.45418-19.19473,24.90841H230.164v21.01243Q239.67819,136.86292,249.19237,124.51662Z" transform="translate(0 -54.9526)" style="fill:#1fcccc"/></g></svg>