<svg id="Layer_1" data-name="Layer 1" xmlns="http://www.w3.org/2000/svg" xmlns:xlink="http://www.w3.org/1999/xlink" viewBox="0 0 446.04443 406.86063"><defs><linearGradient id="linear-gradient" x1="72.42115" y1="234.69526" x2="245.48669" y2="234.69526" gradientUnits="userSpaceOnUse"><stop offset="0" stop-color="#00a8ff"/><stop offset="0" stop-color="#00a9fe"/><stop offset="0" stop-color="#00d7df"/><stop offset="1" stop-color="#00d4e0"/></linearGradient><linearGradient id="linear-gradient-2" x1="-255.76761" y1="34.08921" x2="-225.45899" y2="34.08921" gradientTransform="matrix(0.65018, 0.25025, 0.35921, -0.93326, 347.83383, 242.29814)" xlink:href="#linear-gradient"/><linearGradient id="linear-gradient-3" x1="-235.7408" y1="39.46455" x2="-223.07805" y2="39.46455" gradientTransform="matrix(0.65018, 0.25025, 0.35921, -0.93326, 347.83383, 242.29814)" xlink:href="#linear-gradient"/><linearGradient id="linear-gradient-4" x1="-243.73242" y1="40.14603" x2="-231.06953" y2="40.14603" gradientTransform="matrix(0.65018, 0.25025, 0.35921, -0.93326, 347.83383, 242.29814)" xlink:href="#linear-gradient"/><linearGradient id="linear-gradient-5" x1="-251.42226" y1="40.80179" x2="-238.75951" y2="40.80179" gradientTransform="matrix(0.65018, 0.25025, 0.35921, -0.93326, 347.83383, 242.29814)" xlink:href="#linear-gradient"/><linearGradient id="linear-gradient-6" x1="-252.66979" y1="40.15629" x2="-222.36116" y2="40.15629" gradientTransform="matrix(0.65018, 0.25025, 0.35921, -0.93326, 347.83383, 242.29814)" xlink:href="#linear-gradient"/><linearGradient id="linear-gradient-7" x1="-249.41773" y1="46.70842" x2="-219.10911" y2="46.70842" gradientTransform="matrix(0.65018, 0.25025, 0.35921, -0.93326, 347.83383, 242.29814)" xlink:href="#linear-gradient"/><linearGradient id="linear-gradient-8" x1="267.41116" y1="367.64225" x2="440.47567" y2="367.64225" xlink:href="#linear-gradient"/><linearGradient id="linear-gradient-9" x1="148.6859" y1="302.04325" x2="361.94891" y2="302.04325" xlink:href="#linear-gradient"/><linearGradient id="linear-gradient-10" x1="281.56272" y1="215.85352" x2="370.81551" y2="215.85352" xlink:href="#linear-gradient"/><linearGradient id="linear-gradient-11" x1="89.83301" y1="222.67149" x2="246.92941" y2="222.67149" xlink:href="#linear-gradient"/><linearGradient id="linear-gradient-12" x1="263.83541" y1="214.71081" x2="264.83541" y2="214.71081" gradientUnits="userSpaceOnUse"><stop offset="0" stop-color="#00a8ff"/><stop offset="0.66618" stop-color="#00e5d5"/><stop offset="1" stop-color="#00fec4"/></linearGradient><linearGradient id="linear-gradient-13" x1="140.43764" y1="96.34976" x2="323.45643" y2="96.34976" xlink:href="#linear-gradient"/><linearGradient id="linear-gradient-14" x1="158.47642" y1="111.82757" x2="266.86637" y2="111.82757" xlink:href="#linear-gradient"/><linearGradient id="linear-gradient-15" x1="33.48111" y1="4.56014" x2="73.36796" y2="4.56014" gradientTransform="matrix(0.64984, 0.25113, 0.36047, -0.93277, 347.7937, 242.11873)" xlink:href="#linear-gradient"/><linearGradient id="linear-gradient-16" x1="59.83687" y1="11.6342" x2="76.50134" y2="11.6342" gradientTransform="matrix(0.64984, 0.25113, 0.36047, -0.93277, 347.7937, 242.11873)" xlink:href="#linear-gradient"/><linearGradient id="linear-gradient-17" x1="49.3197" y1="12.53105" x2="65.98436" y2="12.53105" gradientTransform="matrix(0.64984, 0.25113, 0.36047, -0.93277, 347.7937, 242.11873)" xlink:href="#linear-gradient"/><linearGradient id="linear-gradient-18" x1="39.19968" y1="13.39405" x2="55.86417" y2="13.39405" gradientTransform="matrix(0.64984, 0.25113, 0.36047, -0.93277, 347.7937, 242.11873)" xlink:href="#linear-gradient"/><linearGradient id="linear-gradient-19" x1="37.55791" y1="12.54455" x2="77.44478" y2="12.54455" gradientTransform="matrix(0.64984, 0.25113, 0.36047, -0.93277, 347.7937, 242.11873)" xlink:href="#linear-gradient"/><linearGradient id="linear-gradient-20" x1="41.8377" y1="21.16732" x2="81.72456" y2="21.16732" gradientTransform="matrix(0.64984, 0.25113, 0.36047, -0.93277, 347.7937, 242.11873)" xlink:href="#linear-gradient"/><linearGradient id="linear-gradient-21" x1="-414.40856" y1="-100.57965" x2="-374.5217" y2="-100.57965" gradientTransform="matrix(0.65018, 0.25025, 0.35921, -0.93326, 347.83383, 242.29814)" xlink:href="#linear-gradient"/><linearGradient id="linear-gradient-22" x1="-388.0528" y1="-93.50559" x2="-371.38833" y2="-93.50559" gradientTransform="matrix(0.65018, 0.25025, 0.35921, -0.93326, 347.83383, 242.29814)" xlink:href="#linear-gradient"/><linearGradient id="linear-gradient-23" x1="-398.56997" y1="-92.60874" x2="-381.9053" y2="-92.60874" gradientTransform="matrix(0.65018, 0.25025, 0.35921, -0.93326, 347.83383, 242.29814)" xlink:href="#linear-gradient"/><linearGradient id="linear-gradient-24" x1="-408.68998" y1="-91.74575" x2="-392.02549" y2="-91.74575" gradientTransform="matrix(0.65018, 0.25025, 0.35921, -0.93326, 347.83383, 242.29814)" xlink:href="#linear-gradient"/><linearGradient id="linear-gradient-25" x1="-410.33176" y1="-92.59524" x2="-370.44488" y2="-92.59524" gradientTransform="matrix(0.65018, 0.25025, 0.35921, -0.93326, 347.83383, 242.29814)" xlink:href="#linear-gradient"/><linearGradient id="linear-gradient-26" x1="-406.05196" y1="-83.97247" x2="-366.1651" y2="-83.97247" gradientTransform="matrix(0.65018, 0.25025, 0.35921, -0.93326, 347.83383, 242.29814)" xlink:href="#linear-gradient"/><linearGradient id="linear-gradient-27" x1="-111.57224" y1="-151.95053" x2="-77.25179" y2="-151.95053" gradientTransform="matrix(0.65018, 0.25025, 0.35921, -0.93326, 347.83383, 242.29814)" xlink:href="#linear-gradient"/><linearGradient id="linear-gradient-28" x1="-88.89455" y1="-145.86369" x2="-74.55569" y2="-145.86369" gradientTransform="matrix(0.65018, 0.25025, 0.35921, -0.93326, 347.83383, 242.29814)" xlink:href="#linear-gradient"/><linearGradient id="linear-gradient-29" x1="-97.944" y1="-145.092" x2="-83.60497" y2="-145.092" gradientTransform="matrix(0.65018, 0.25025, 0.35921, -0.93326, 347.83383, 242.29814)" xlink:href="#linear-gradient"/><linearGradient id="linear-gradient-30" x1="-106.65171" y1="-144.34944" x2="-92.31284" y2="-144.34944" gradientTransform="matrix(0.65018, 0.25025, 0.35921, -0.93326, 347.83383, 242.29814)" xlink:href="#linear-gradient"/><linearGradient id="linear-gradient-31" x1="-108.06437" y1="-145.08039" x2="-73.74391" y2="-145.08039" gradientTransform="matrix(0.65018, 0.25025, 0.35921, -0.93326, 347.83383, 242.29814)" xlink:href="#linear-gradient"/><linearGradient id="linear-gradient-32" x1="-104.38185" y1="-137.66097" x2="-70.0614" y2="-137.66097" gradientTransform="matrix(0.65018, 0.25025, 0.35921, -0.93326, 347.83383, 242.29814)" xlink:href="#linear-gradient"/></defs><path d="M72.67042,284.31626l172.567-99.242" transform="translate(-17.20711 -32.46626)" style="fill:none;stroke-miterlimit:10;stroke:url(#linear-gradient)"/><polygon points="197.96 183.441 186.6 176.878 186.6 170.636 176.31 164.257 161.669 172.369 178.059 181.879 178.06 181.879 189.237 188.362 197.96 183.441" style="fill:#e3e3e3"/><polygon points="195.972 175.618 176.31 164.257 176.31 145.758 194.778 156.314 195.972 153.594 195.972 175.618" style="fill:#d4d0d0"/><polygon points="178.69 165.191 178.868 165.016 189.72 171.354 189.72 171.628 178.69 165.191" style="fill:#ecdfd0"/><polygon points="178.868 165.016 178.868 149.84 178.69 149.741 178.69 165.191 178.868 165.016" style="fill:#c2ab9b"/><polygon points="178.69 159.748 189.72 166.153 189.72 164.44 178.69 158.034 178.69 159.748" style="fill:#5b5353"/><polygon points="178.69 161.461 189.72 167.867 189.72 166.153 178.69 159.748 178.69 161.461" style="fill:#4d4343"/><polygon points="178.69 164.01 178.69 164.297 178.69 165.191 179.052 165.395 179.625 165.718 179.835 165.836 180.031 165.946 189.72 171.628 189.72 169.581 178.69 163.175 178.69 164.01" style="fill:#4d4343"/><polygon points="178.69 163.175 189.72 169.581 189.72 169.139 189.72 168.893 189.72 168.627 189.72 167.906 189.72 167.867 178.69 161.461 178.69 163.175" style="fill:#5b5353"/><polygon points="178.69 158.034 189.72 164.44 189.72 162.726 178.69 156.32 178.69 158.034" style="fill:#4d4343"/><polygon points="178.69 152.893 178.69 154.606 189.72 161.012 189.72 159.299 178.69 152.893" style="fill:#4d4343"/><polygon points="189.72 157.585 178.69 151.179 178.69 151.403 178.69 151.988 178.69 152.893 189.72 159.299 189.72 157.585" style="fill:#5b5353"/><polygon points="189.72 156.147 181.291 151.182 181.062 151.055 180.487 150.737 180.019 150.477 178.69 149.741 178.69 151.179 189.72 157.585 189.72 156.147" style="fill:#4d4343"/><polygon points="178.69 156.32 189.72 162.726 189.72 161.012 178.69 154.606 178.69 156.32" style="fill:#5b5353"/><polygon points="191.059 123.586 211.005 135.155 194.778 156.314 174.539 144.745 191.059 123.586" style="fill:#50626c"/><polygon points="246.319 140.431 246.23 170.676 211.438 191.229 211.438 163.407 230.428 140.114 246.319 140.431" style="fill:#d4d0d0"/><polygon points="211.438 191.229 186.6 176.878 186.6 153.508 209.929 166.844 211.438 163.407 211.438 191.229" style="fill:#f5f1f0"/><polygon points="205.231 125.5 230.428 140.114 209.929 166.844 184.363 152.229 205.231 125.5" style="fill:#65757c"/><polygon points="250.658 140.518 223.729 125.5 205.231 125.5 230.428 140.114 250.658 140.518" style="fill:#3b4a51"/><polygon points="191.744 163.183 191.507 163.051 190.912 162.722 190.428 162.454 189.053 161.692 189.053 163.412 189.053 164.017 189.053 176.456 189.053 176.753 189.053 177.679 189.427 177.889 190.02 178.223 190.238 178.346 190.44 178.46 195.179 181.233 195.179 178.658 195.179 178.403 195.179 178.128 195.179 177.381 195.179 165.214 191.744 163.183" style="fill:#5b5353"/><polygon points="189.053 177.679 189.237 177.497 195.179 180.95 195.179 181.233 189.053 177.679" style="fill:#ecdfd0"/><polygon points="189.237 177.497 189.237 161.794 189.053 161.692 189.053 177.679 189.237 177.497" style="fill:#c2ab9b"/><polygon points="207.028 130.276 225.715 140.224 208.633 160.49 189.946 150.542 207.028 130.276" style="fill:#153759"/><polygon points="194.394 145.176 213.081 155.125 212.88 155.363 194.193 145.415 194.394 145.176" style="fill:url(#linear-gradient-2)"/><polygon points="204.24 158.152 221.322 137.886 221.464 137.962 204.382 158.228 204.24 158.152" style="fill:url(#linear-gradient-3)"/><polygon points="199.289 155.516 216.371 135.25 216.513 135.326 199.431 155.592 199.289 155.516" style="fill:url(#linear-gradient-4)"/><polygon points="194.525 152.98 211.607 132.714 211.749 132.789 194.667 153.056 194.525 152.98" style="fill:url(#linear-gradient-5)"/><polygon points="198.587 140.289 217.274 150.238 217.073 150.476 198.386 140.528 198.587 140.289" style="fill:url(#linear-gradient-6)"/><polygon points="203.055 134.988 221.742 144.937 221.541 145.175 202.854 135.227 203.055 134.988" style="fill:url(#linear-gradient-7)"/><path d="M267.66043,417.26325l172.566-99.242" transform="translate(-17.20711 -32.46626)" style="fill:none;stroke-miterlimit:10;stroke:url(#linear-gradient-8)"/><path d="M148.93441,241.10926l212.766,121.868" transform="translate(-17.20711 -32.46626)" style="fill:none;stroke-miterlimit:10;stroke:url(#linear-gradient-9)"/><path d="M370.56143,269.91426l-14.63-8.632a8.77852,8.77852,0,0,0-8.835-.054l-58.44,33.536a4.41446,4.41446,0,0,1-6.593-3.923v-154.982" transform="translate(-17.20711 -32.46626)" style="fill:none;stroke-miterlimit:10;stroke:url(#linear-gradient-10)"/><path d="M90.08142,296.50324l92.33,52.855a8.863,8.863,0,0,0,8.759.027l50.752-28.637a8.864,8.864,0,0,0,4.507-7.622V94.31356" transform="translate(-17.20711 -32.46626)" style="fill:none;stroke-miterlimit:10;stroke:url(#linear-gradient-11)"/><path d="M46.08042,296.50324l9.971,5.54" transform="translate(-17.20711 -32.46626)" style="fill:none;stroke:#fff;stroke-linecap:round;stroke-width:2px"/><path d="M264.33541,122.32836V307.09327" transform="translate(-17.20711 -32.46626)" style="fill:none;stroke-miterlimit:10;stroke:url(#linear-gradient-12)"/><path d="M313.58142,160.23326l-167.292-96.5644c-13.02-10.9487-2.713-28.62768,15.206-30.84346q17.9175-2.21579,27.341,9.23916,19.884-13.838,42.857-3.37616,22.974,10.46184,34.028,43.50486a66.27025,66.27025,0,0,1,50.911,40.5175Q331.66541,159.76151,313.58142,160.23326Z" transform="translate(-17.20711 -32.46626)" style="fill-rule:evenodd;fill:url(#linear-gradient-13)"/><path d="M308.0061,161.89571,142.88936,66.587c-12.85177-10.8064-2.67874-28.25567,15.00738-30.44265q17.68611-2.187,26.98664,9.119,19.6241-13.65813,42.3-3.33224,22.67542,10.326,33.58477,42.9395a65.40719,65.40719,0,0,1,50.24933,39.9909Q325.8551,161.42974,308.0061,161.89571Z" transform="translate(-17.20711 -32.46626)" style="fill:#153759;fill-rule:evenodd"/><path d="M246.86941,145.32226l-88.393-51.5629v-6.9175a10.31949,10.31949,0,0,1,19.256-5.161,37.18507,37.18507,0,0,1,53.415,19.8579l5.012,14.0854q10.70252-2.76135,23.135,4.5871,5.505,3.25425,7.221,10.60609a13.29507,13.29507,0,0,1-19.646,14.50491Z" transform="translate(-17.20711 -32.46626)" style="fill-rule:evenodd;fill:url(#linear-gradient-14)"/><path d="M243.54641,148.64626l-86.815-50.6916c-3.324-1.6618-2.77-7.7891-2.77-7.7891,0-5.6996,5.812-10.32,11.511-10.32a10.32014,10.32014,0,0,1,8.937,5.159,37.18512,37.18512,0,0,1,53.415,19.8579l5.012,14.0854q10.70251-2.76135,23.134,4.5871,5.50648,3.25423,7.222,10.6063a13.29508,13.29508,0,0,1-19.646,14.505Z" transform="translate(-17.20711 -32.46626)" style="fill:#153759;fill-rule:evenodd"/><polygon points="376.692 294.943 361.743 286.306 361.743 278.091 348.201 269.697 328.933 280.372 350.503 292.888 350.504 292.888 365.212 301.419 376.692 294.943" style="fill:#e3e3e3"/><polygon points="374.077 284.648 348.201 269.697 348.201 245.351 372.505 259.244 374.077 255.664 374.077 284.648" style="fill:#d4d0d0"/><polygon points="351.333 270.926 351.567 270.695 365.849 279.036 365.849 279.397 351.333 270.926" style="fill:#ecdfd0"/><polygon points="351.567 270.695 351.567 250.723 351.333 250.593 351.333 270.926 351.567 270.695" style="fill:#c2ab9b"/><polygon points="351.333 263.762 365.849 272.192 365.849 269.937 351.333 261.507 351.333 263.762" style="fill:#5b5353"/><polygon points="351.333 266.017 365.849 274.447 365.849 272.192 351.333 263.762 351.333 266.017" style="fill:#4d4343"/><polygon points="351.333 269.371 351.333 269.749 351.333 270.926 351.809 271.194 352.563 271.619 352.84 271.775 353.098 271.92 365.849 279.397 365.849 276.703 351.333 268.272 351.333 269.371" style="fill:#4d4343"/><polygon points="351.333 268.272 365.849 276.703 365.849 276.121 365.849 275.797 365.849 275.448 365.849 274.498 365.849 274.447 351.333 266.017 351.333 268.272" style="fill:#5b5353"/><polygon points="351.333 261.507 365.849 269.937 365.849 267.682 351.333 259.251 351.333 261.507" style="fill:#4d4343"/><polygon points="351.333 254.741 351.333 256.996 365.849 265.426 365.849 263.171 351.333 254.741" style="fill:#4d4343"/><polygon points="365.849 260.916 351.333 252.486 351.333 252.781 351.333 253.551 351.333 254.741 365.849 263.171 365.849 260.916" style="fill:#5b5353"/><polygon points="365.849 259.024 354.756 252.49 354.454 252.322 353.698 251.903 353.082 251.562 351.333 250.593 351.333 252.486 365.849 260.916 365.849 259.024" style="fill:#4d4343"/><polygon points="351.333 259.251 365.849 267.682 365.849 265.426 351.333 256.996 351.333 259.251" style="fill:#5b5353"/><polygon points="367.61 216.172 393.86 231.397 372.505 259.244 345.87 244.019 367.61 216.172" style="fill:#50626c"/><polygon points="440.335 238.341 440.217 278.144 394.43 305.192 394.43 268.578 419.421 237.924 440.335 238.341" style="fill:#d4d0d0"/><polygon points="394.43 305.192 361.743 286.306 361.743 255.551 392.444 273.101 394.43 268.578 394.43 305.192" style="fill:#f5f1f0"/><polygon points="386.261 218.691 419.421 237.924 392.444 273.101 358.798 253.868 386.261 218.691" style="fill:#65757c"/><polygon points="446.044 238.455 410.605 218.691 386.261 218.691 419.421 237.924 446.044 238.455" style="fill:#3b4a51"/><polygon points="368.513 268.283 368.2 268.11 367.417 267.676 366.78 267.323 364.97 266.321 364.97 268.584 364.97 269.381 364.97 285.751 364.97 286.142 364.97 287.36 365.463 287.637 366.243 288.077 366.53 288.238 366.796 288.388 373.033 292.037 373.033 288.648 373.033 288.313 373.033 287.951 373.033 286.969 373.033 270.957 368.513 268.283" style="fill:#5b5353"/><polygon points="364.97 287.36 365.212 287.121 373.033 291.665 373.033 292.037 364.97 287.36" style="fill:#ecdfd0"/><polygon points="365.212 287.121 365.212 266.455 364.97 266.321 364.97 287.36 365.212 287.121" style="fill:#c2ab9b"/><polygon points="388.653 224.975 413.228 238.101 390.712 264.741 366.137 251.615 388.653 224.975" style="fill:#153759"/><polygon points="372 244.562 396.575 257.688 396.31 258.001 371.735 244.875 372 244.562" style="fill:url(#linear-gradient-15)"/><polygon points="384.935 261.656 407.451 235.016 407.638 235.116 385.122 261.756 384.935 261.656" style="fill:url(#linear-gradient-16)"/><polygon points="378.424 258.178 400.94 231.538 401.127 231.638 378.611 258.278 378.424 258.178" style="fill:url(#linear-gradient-17)"/><polygon points="372.159 254.832 394.675 228.192 394.862 228.291 372.346 254.932 372.159 254.832" style="fill:url(#linear-gradient-18)"/><polygon points="377.527 238.138 402.102 251.264 401.837 251.577 377.263 238.451 377.527 238.138" style="fill:url(#linear-gradient-19)"/><polygon points="383.417 231.17 407.992 244.296 407.727 244.609 383.152 231.483 383.417 231.17" style="fill:url(#linear-gradient-20)"/><polygon points="47.76 281.103 32.811 272.465 32.811 264.251 19.269 255.857 0 266.531 21.571 279.047 21.571 279.047 36.28 287.579 47.76 281.103" style="fill:#e3e3e3"/><polygon points="45.144 270.808 19.269 255.857 19.269 231.511 43.572 245.403 45.144 241.823 45.144 270.808" style="fill:#d4d0d0"/><polygon points="22.4 257.085 22.634 256.855 36.916 265.196 36.916 265.556 22.4 257.085" style="fill:#ecdfd0"/><polygon points="22.634 256.855 22.634 236.883 22.4 236.753 22.4 257.085 22.634 256.855" style="fill:#c2ab9b"/><polygon points="22.4 249.921 36.916 258.352 36.916 256.096 22.4 247.666 22.4 249.921" style="fill:#5b5353"/><polygon points="22.4 252.177 36.916 260.607 36.916 258.352 22.4 249.921 22.4 252.177" style="fill:#4d4343"/><polygon points="22.4 255.53 22.4 255.908 22.4 257.085 22.877 257.354 23.631 257.778 23.908 257.934 24.165 258.079 36.916 265.556 36.916 262.862 22.4 254.432 22.4 255.53" style="fill:#4d4343"/><polygon points="22.4 254.432 36.916 262.862 36.916 262.281 36.916 261.957 36.916 261.607 36.916 260.658 36.916 260.607 22.4 252.177 22.4 254.432" style="fill:#5b5353"/><polygon points="22.4 247.666 36.916 256.096 36.916 253.841 22.4 245.411 22.4 247.666" style="fill:#4d4343"/><polygon points="22.4 240.901 22.4 243.156 36.916 251.586 36.916 249.331 22.4 240.901" style="fill:#4d4343"/><polygon points="36.916 247.076 22.4 238.645 22.4 238.94 22.4 239.71 22.4 240.901 36.916 249.331 36.916 247.076" style="fill:#5b5353"/><polygon points="36.916 245.183 25.824 238.649 25.522 238.482 24.765 238.063 24.149 237.722 22.4 236.753 22.4 238.645 36.916 247.076 36.916 245.183" style="fill:#4d4343"/><polygon points="22.4 245.411 36.916 253.841 36.916 251.586 22.4 243.156 22.4 245.411" style="fill:#5b5353"/><polygon points="38.678 202.331 64.928 217.557 43.572 245.403 16.938 230.178 38.678 202.331" style="fill:#50626c"/><polygon points="111.402 224.501 111.285 264.303 65.497 291.351 65.497 254.737 90.489 224.083 111.402 224.501" style="fill:#d4d0d0"/><polygon points="65.497 291.351 32.811 272.465 32.811 241.711 63.511 259.26 65.497 254.737 65.497 291.351" style="fill:#f5f1f0"/><polygon points="57.329 204.85 90.489 224.083 63.511 259.26 29.866 240.027 57.329 204.85" style="fill:#65757c"/><polygon points="117.112 224.615 81.673 204.85 57.329 204.85 90.489 224.083 117.112 224.615" style="fill:#3b4a51"/><polygon points="39.58 254.442 39.268 254.269 38.485 253.836 37.848 253.483 36.038 252.48 36.038 254.743 36.038 255.54 36.038 271.91 36.038 272.301 36.038 273.519 36.531 273.797 37.311 274.236 37.598 274.397 37.864 274.548 44.1 278.197 44.1 274.808 44.1 274.472 44.1 274.111 44.1 273.128 44.1 257.116 39.58 254.442" style="fill:#5b5353"/><polygon points="36.038 273.519 36.28 273.28 44.1 277.824 44.1 278.197 36.038 273.519" style="fill:#ecdfd0"/><polygon points="36.28 273.28 36.28 252.614 36.038 252.48 36.038 273.519 36.28 273.28" style="fill:#c2ab9b"/><polygon points="59.693 211.136 84.286 224.229 61.806 250.899 37.214 237.806 59.693 211.136" style="fill:#153759"/><polygon points="43.067 230.745 67.66 243.838 67.395 244.152 42.803 231.059 43.067 230.745" style="fill:url(#linear-gradient-21)"/><polygon points="56.025 247.822 78.505 221.151 78.693 221.251 56.212 247.922 56.025 247.822" style="fill:url(#linear-gradient-22)"/><polygon points="49.509 244.353 71.99 217.682 72.177 217.782 49.696 244.453 49.509 244.353" style="fill:url(#linear-gradient-23)"/><polygon points="43.239 241.015 65.72 214.344 65.907 214.444 43.427 241.115 43.239 241.015" style="fill:url(#linear-gradient-24)"/><polygon points="48.586 224.314 73.178 237.407 72.914 237.72 48.321 224.628 48.586 224.314" style="fill:url(#linear-gradient-25)"/><polygon points="54.466 217.338 79.058 230.431 78.794 230.744 54.201 217.651 54.466 217.338" style="fill:url(#linear-gradient-26)"/><polygon points="225.438 398.042 212.575 390.61 212.575 383.542 200.923 376.319 184.344 385.504 202.904 396.274 202.904 396.273 215.56 403.614 225.438 398.042" style="fill:#e3e3e3"/><polygon points="223.188 389.184 200.923 376.319 200.923 355.371 221.835 367.325 223.188 364.244 223.188 389.184" style="fill:#d4d0d0"/><polygon points="203.618 377.377 203.819 377.178 216.108 384.355 216.108 384.665 203.618 377.377" style="fill:#ecdfd0"/><polygon points="203.819 377.178 203.819 359.993 203.618 359.882 203.618 377.377 203.819 377.178" style="fill:#c2ab9b"/><polygon points="203.618 371.212 216.108 378.466 216.108 376.526 203.618 369.272 203.618 371.212" style="fill:#5b5353"/><polygon points="203.618 373.153 216.108 380.407 216.108 378.466 203.618 371.212 203.618 373.153" style="fill:#4d4343"/><polygon points="203.618 376.039 203.618 376.364 203.618 377.377 204.028 377.607 204.676 377.973 204.915 378.107 205.136 378.232 216.108 384.665 216.108 382.347 203.618 375.093 203.618 376.039" style="fill:#4d4343"/><polygon points="203.618 375.093 216.108 382.347 216.108 381.847 216.108 381.568 216.108 381.267 216.108 380.45 216.108 380.407 203.618 373.153 203.618 375.093" style="fill:#5b5353"/><polygon points="203.618 369.272 216.108 376.526 216.108 374.585 203.618 367.331 203.618 369.272" style="fill:#4d4343"/><polygon points="203.618 363.45 203.618 365.391 216.108 372.645 216.108 370.704 203.618 363.45" style="fill:#4d4343"/><polygon points="216.108 368.764 203.618 361.51 203.618 361.764 203.618 362.426 203.618 363.45 216.108 370.704 216.108 368.764" style="fill:#5b5353"/><polygon points="216.108 367.135 206.564 361.513 206.304 361.369 205.653 361.009 205.123 360.715 203.618 359.882 203.618 361.51 216.108 368.764 216.108 367.135" style="fill:#4d4343"/><polygon points="203.618 367.331 216.108 374.585 216.108 372.645 203.618 365.391 203.618 367.331" style="fill:#5b5353"/><polygon points="217.624 330.264 240.21 343.364 221.835 367.325 198.917 354.224 217.624 330.264" style="fill:#50626c"/><polygon points="280.199 349.339 280.098 383.587 240.7 406.861 240.7 375.356 262.204 348.98 280.199 349.339" style="fill:#d4d0d0"/><polygon points="240.7 406.861 212.575 390.61 212.575 364.147 238.992 379.248 240.7 375.356 240.7 406.861" style="fill:#f5f1f0"/><polygon points="233.672 332.431 262.204 348.98 238.992 379.248 210.041 362.699 233.672 332.431" style="fill:#65757c"/><polygon points="285.112 349.437 254.618 332.431 233.672 332.431 262.204 348.98 285.112 349.437" style="fill:#3b4a51"/><polygon points="218.4 375.102 218.131 374.953 217.458 374.58 216.909 374.277 215.352 373.414 215.352 375.361 215.352 376.047 215.352 390.132 215.352 390.469 215.352 391.517 215.776 391.756 216.447 392.134 216.694 392.273 216.923 392.402 222.29 395.542 222.29 392.625 222.29 392.337 222.29 392.026 222.29 391.18 222.29 377.403 218.4 375.102" style="fill:#5b5353"/><polygon points="215.352 391.517 215.56 391.312 222.29 395.221 222.29 395.542 215.352 391.517" style="fill:#ecdfd0"/><polygon points="215.56 391.312 215.56 373.529 215.352 373.414 215.352 391.517 215.56 391.312" style="fill:#c2ab9b"/><polygon points="235.707 337.839 256.867 349.105 237.524 372.053 216.364 360.788 235.707 337.839" style="fill:#153759"/><polygon points="221.4 354.712 242.561 365.978 242.334 366.248 221.173 354.982 221.4 354.712" style="fill:url(#linear-gradient-27)"/><polygon points="232.55 369.406 251.893 346.457 252.054 346.543 232.711 369.492 232.55 369.406" style="fill:url(#linear-gradient-28)"/><polygon points="226.944 366.421 246.287 343.472 246.448 343.558 227.105 366.507 226.944 366.421" style="fill:url(#linear-gradient-29)"/><polygon points="221.549 363.549 240.892 340.6 241.053 340.686 221.71 363.635 221.549 363.549" style="fill:url(#linear-gradient-30)"/><polygon points="226.149 349.179 247.31 360.444 247.082 360.714 225.921 349.449 226.149 349.179" style="fill:url(#linear-gradient-31)"/><polygon points="231.208 343.176 252.369 354.442 252.141 354.711 230.981 343.446 231.208 343.176" style="fill:url(#linear-gradient-32)"/></svg>